<svg xmlns="http://www.w3.org/2000/svg" width="14.037" height="17.141" viewBox="0 0 14.037 17.141"><g transform="translate(0.2 0.2)"><path d="M4.062,17.8a2.871,2.871,0,0,1-2.942-2.79V6.327a.608.608,0,1,1,1.216,0v8.688a1.662,1.662,0,0,0,1.657,1.576l6.273,0a1.676,1.676,0,0,0,1.725-1.564v-8.7a.606.606,0,1,1,1.212,0v8.688A2.853,2.853,0,0,1,10.337,17.8Z" transform="translate(-0.344 -1.06)" fill="#fff" stroke="#fff" stroke-width="0.4"/><path d="M.808,3.745A.608.608,0,0,1,.2,3.138.607.607,0,0,1,.808,2.53H4.082V.808A.608.608,0,0,1,4.69.2H9.349a.608.608,0,0,1,.608.608V2.529h3.274a.608.608,0,0,1,0,1.216ZM5.3,2.528l3.443,0V1.416H5.3Z" transform="translate(-0.201 -0.2)" fill="#fff" stroke="#fff" stroke-width="0.4"/><path d="M6.327,14.21a.608.608,0,0,1-.608-.608V8.167a.608.608,0,0,1,1.216,0V13.6A.608.608,0,0,1,6.327,14.21Z" transform="translate(-1.061 -1.347)" fill="#fff" stroke="#fff" stroke-width="0.4"/><path d="M10.006,14.21A.609.609,0,0,1,9.4,13.6V8.167a.608.608,0,0,1,1.216,0V13.6A.608.608,0,0,1,10.006,14.21Z" transform="translate(-1.635 -1.347)" fill="#fff" stroke="#fff" stroke-width="0.4"/></g></svg>